<svg xmlns="http://www.w3.org/2000/svg" viewBox="0 0 100 100" width="100" height="100">
<defs><linearGradient id="g" x1="0" y1="0" x2="1" y2="1"><stop offset="0" stop-color="#ff7a3c"/><stop offset="1" stop-color="#ff2e7e"/></linearGradient></defs>
<rect width="100" height="100" rx="26" fill="url(#g)"/>
<path transform="translate(-121.13,-233.07) scale(0.27126)" fill="#0a0a0c" d="M 661.873 932.964 L 719.963 933.173 L 719.998 1007.41 C 693.462 1003.91 679.99 992.56 662.564 972.864 C 652.489 983.243 642.55 993.753 632.75 1004.39 C 634.405 1006.25 636.071 1008.09 637.749 1009.92 C 663.022 1037.49 683.025 1049.18 720.115 1050.84 C 719.983 1081.91 721.502 1123.85 719.846 1154.16 L 648.16 1153.94 C 660.635 1138.37 703.215 1101.78 707.859 1087 C 709.452 1081.93 709.065 1076.55 706.497 1071.87 C 703.392 1066.21 696.957 1061.08 690.734 1059.36 C 686.183 1058.1 681.138 1058.32 677.004 1060.72 C 667.442 1066.28 615.04 1119.63 608.338 1129.66 C 603.356 1137.11 600.916 1144.98 598.66 1153.57 L 541.675 1153.78 L 541.999 1081.28 C 565.631 1084.86 584.048 1098.59 597.814 1117.85 C 608.794 1106.79 618.903 1095.75 630.219 1084.68 C 599.665 1054.41 584.685 1040.73 541.854 1037.03 L 541.796 933.102 C 566.624 932.898 591.453 932.95 616.28 933.257 C 605.287 947.049 558.681 991.272 555.832 1001 C 554.256 1006.38 555.018 1013.27 557.96 1018.06 C 561.15 1023.26 566.529 1027.38 572.531 1028.65 C 578.336 1029.88 585.719 1028.79 590.605 1025.31 C 598.3 1019.84 648.625 966.698 653.322 959.035 C 658.143 951.169 660.177 941.899 661.873 932.964 z"/>
</svg>
