<svg xmlns="http://www.w3.org/2000/svg" preserveAspectRatio="xMidYMid meet" version="1.1" viewBox="486 831 1075 387" width="1600" height="576">
<defs>
<linearGradient gradientUnits="userSpaceOnUse" id="Gradient1" x1="974.705" x2="1289.93" y1="1082.37" y2="1006.26">
<stop offset="0" stop-color="rgb(250,92,61)"/>
<stop offset="1" stop-color="rgb(251,49,86)"/>
</linearGradient>
</defs>
<path fill-rule="evenodd" fill="rgb(255,46,126)" d="M 1489.26 886.517 L 1506.4 886.477 C 1499.39 918.522 1493.47 957.292 1487.73 990.057 C 1477.76 1046.43 1467.49 1102.75 1456.94 1159.01 L 1391.64 1159.02 L 1394.95 1135.65 C 1373.56 1153.4 1357.92 1163.34 1329.1 1161.04 C 1311.39 1159.62 1300.98 1154.7 1286.35 1145.18 C 1263.11 1126.92 1256.42 1102.63 1257.14 1073.64 C 1258.46 1039.56 1268.8 1001.22 1294.08 976.927 C 1319.96 952.052 1363.41 947.747 1395.86 960.874 C 1407.36 965.525 1415.02 973.177 1423.31 982.116 C 1426.28 952.938 1434.17 916.965 1438.72 886.836 L 1489.26 886.517 z M 1369.66 1008.29 C 1389.64 1008.78 1403.46 1018.56 1406.96 1039.01 C 1412.63 1072.17 1399.07 1100.57 1363.99 1106.73 C 1311.86 1107.44 1311.68 1017.71 1369.66 1008.29 z"/>
<path fill="url(#Gradient1)" d="M 960.137 958.967 L 1027.72 959.488 C 1030 990.739 1034.72 1032.92 1039.95 1063.61 C 1042.58 1058.49 1044.88 1053.12 1047.35 1047.91 C 1061.48 1018.11 1076.66 988.926 1090.81 959.122 C 1109.37 960.31 1130.92 959.609 1149.7 959.42 C 1155.59 996.008 1159.52 1031.8 1166.66 1068.73 C 1170.87 1060.52 1176.53 1045.8 1180.37 1036.81 L 1213.25 959.097 C 1236.43 959.306 1259.62 959.375 1282.81 959.302 C 1272.71 981.867 1260.45 1005.15 1249.26 1027.41 C 1226.87 1071.02 1205.05 1114.93 1183.82 1159.12 L 1120.29 1159.1 C 1118.1 1145.54 1116.66 1128.7 1114.9 1114.63 L 1105.68 1043.71 C 1098.58 1057.26 1091.76 1073.98 1085.52 1088.22 L 1054.32 1159.14 L 991.417 1159.07 C 985.574 1120.21 979.491 1081.38 973.169 1042.59 C 968.49 1014.69 963.204 987.109 960.137 958.967 z"/>
<path fill="rgb(255,122,60)" d="M 866.357 954.418 C 916.662 952.014 954.328 965.314 956.366 1021.47 C 937.609 1022.27 916.274 1021.81 897.328 1021.82 C 896.619 1016.58 896.335 1012.56 892.98 1008.04 C 886.97 998.076 863.03 994.351 854.73 1002.61 C 839.064 1018.18 870.001 1026.04 877.507 1028.77 C 897.753 1036.14 922.803 1043.23 938.299 1057.86 C 959.063 1077.47 957.465 1119.66 936.701 1138.62 C 913.351 1160.79 885.87 1163.17 855.54 1163.06 C 824.602 1163.34 786.031 1153.9 770.441 1124.26 C 764.905 1113.74 764.247 1102.48 763.677 1090.88 L 822.568 1090.85 C 829.878 1117.37 862.047 1124.35 883.604 1109.31 C 900.257 1097.69 859.505 1085.45 851.435 1082.59 C 822.448 1072.33 787.025 1060.18 784.906 1023.31 C 783.87 1007.67 789.131 992.265 799.516 980.524 C 817.313 960.647 841.032 955.933 866.357 954.418 z"/>
<path fill="rgb(255,255,255)" d="M 661.873 932.964 L 719.963 933.173 L 719.998 1007.41 C 693.462 1003.91 679.99 992.56 662.564 972.864 C 652.489 983.243 642.55 993.753 632.75 1004.39 C 634.405 1006.25 636.071 1008.09 637.749 1009.92 C 663.022 1037.49 683.025 1049.18 720.115 1050.84 C 719.983 1081.91 721.502 1123.85 719.846 1154.16 L 648.16 1153.94 C 660.635 1138.37 703.215 1101.78 707.859 1087 C 709.452 1081.93 709.065 1076.55 706.497 1071.87 C 703.392 1066.21 696.957 1061.08 690.734 1059.36 C 686.183 1058.1 681.138 1058.32 677.004 1060.72 C 667.442 1066.28 615.04 1119.63 608.338 1129.66 C 603.356 1137.11 600.916 1144.98 598.66 1153.57 L 541.675 1153.78 L 541.999 1081.28 C 565.631 1084.86 584.048 1098.59 597.814 1117.85 C 608.794 1106.79 618.903 1095.75 630.219 1084.68 C 599.665 1054.41 584.685 1040.73 541.854 1037.03 L 541.796 933.102 C 566.624 932.898 591.453 932.95 616.28 933.257 C 605.287 947.049 558.681 991.272 555.832 1001 C 554.256 1006.38 555.018 1013.27 557.96 1018.06 C 561.15 1023.26 566.529 1027.38 572.531 1028.65 C 578.336 1029.88 585.719 1028.79 590.605 1025.31 C 598.3 1019.84 648.625 966.698 653.322 959.035 C 658.143 951.169 660.177 941.899 661.873 932.964 z"/>
</svg>
